<mxfile host="app.diagrams.net" modified="2024-01-20T20:43:45.765Z" agent="Mozilla/5.0 (Macintosh; Intel Mac OS X 10.15; rv:121.0) Gecko/20100101 Firefox/121.0" etag="tX9jQYLra-AqpxdZo2ox" version="22.1.21" type="device">
  <diagram name="Page-1" id="Aw13x2hverSKA25ndYJ4">
    <mxGraphModel dx="1078" dy="1257" grid="1" gridSize="12" guides="1" tooltips="1" connect="1" arrows="1" fold="1" page="0" pageScale="1" pageWidth="850" pageHeight="1100" background="none" math="0" shadow="0">
      <root>
        <mxCell id="0" />
        <mxCell id="1" parent="0" />
        <mxCell id="0PCHiIV0-nsaMOj3hNc_-49" value="" style="rounded=0;whiteSpace=wrap;html=1;fontSize=16;dashed=1;dashPattern=8 8;fillColor=none;" vertex="1" parent="1">
          <mxGeometry x="252" y="-96" width="120" height="264" as="geometry" />
        </mxCell>
        <mxCell id="0PCHiIV0-nsaMOj3hNc_-1" value="" style="rounded=1;whiteSpace=wrap;html=1;fontSize=16;" vertex="1" parent="1">
          <mxGeometry x="384" y="-96" width="432" height="264" as="geometry" />
        </mxCell>
        <mxCell id="0PCHiIV0-nsaMOj3hNc_-41" value="&lt;div&gt;HTTP request with&lt;/div&gt;&lt;div&gt;in-path and JSON data&lt;br&gt;&lt;/div&gt;" style="text;whiteSpace=wrap;html=1;fontSize=12;align=center;" vertex="1" parent="1">
          <mxGeometry x="276" y="-59" width="72" height="72" as="geometry" />
        </mxCell>
        <mxCell id="0PCHiIV0-nsaMOj3hNc_-44" value="&lt;div&gt;HTTP reply with JSON data&lt;br&gt;&lt;/div&gt;" style="text;whiteSpace=wrap;html=1;fontSize=12;align=center;" vertex="1" parent="1">
          <mxGeometry x="276" y="108" width="72" height="60" as="geometry" />
        </mxCell>
        <mxCell id="0PCHiIV0-nsaMOj3hNc_-45" value="&lt;b&gt;REST API&lt;/b&gt;" style="text;whiteSpace=wrap;html=1;fontSize=16;" vertex="1" parent="1">
          <mxGeometry x="270" y="-96" width="84" height="48" as="geometry" />
        </mxCell>
        <mxCell id="0PCHiIV0-nsaMOj3hNc_-46" value="" style="endArrow=classic;html=1;rounded=0;fontSize=12;startSize=8;endSize=8;curved=1;exitX=1;exitY=0.5;exitDx=0;exitDy=0;strokeWidth=3;" edge="1" parent="1" source="0PCHiIV0-nsaMOj3hNc_-24">
          <mxGeometry width="50" height="50" relative="1" as="geometry">
            <mxPoint x="216" y="230" as="sourcePoint" />
            <mxPoint x="396" y="24" as="targetPoint" />
            <Array as="points">
              <mxPoint x="312" />
            </Array>
          </mxGeometry>
        </mxCell>
        <mxCell id="0PCHiIV0-nsaMOj3hNc_-47" value="" style="endArrow=classic;html=1;rounded=0;fontSize=12;startSize=8;endSize=8;curved=1;exitX=0;exitY=1;exitDx=0;exitDy=0;entryX=1;entryY=0.75;entryDx=0;entryDy=0;strokeWidth=3;" edge="1" parent="1" source="0PCHiIV0-nsaMOj3hNc_-2" target="0PCHiIV0-nsaMOj3hNc_-24">
          <mxGeometry width="50" height="50" relative="1" as="geometry">
            <mxPoint x="240" y="414" as="sourcePoint" />
            <mxPoint x="426" y="360" as="targetPoint" />
            <Array as="points">
              <mxPoint x="312" y="144" />
            </Array>
          </mxGeometry>
        </mxCell>
        <mxCell id="0PCHiIV0-nsaMOj3hNc_-2" value="&lt;div&gt;HTTPlib&lt;/div&gt;&lt;div&gt;Web server&lt;/div&gt;thread" style="ellipse;whiteSpace=wrap;html=1;aspect=fixed;fontSize=16;" vertex="1" parent="1">
          <mxGeometry x="396" y="-12" width="96" height="96" as="geometry" />
        </mxCell>
        <mxCell id="0PCHiIV0-nsaMOj3hNc_-3" value="&lt;div&gt;Simulation Thread&lt;/div&gt;" style="ellipse;whiteSpace=wrap;html=1;aspect=fixed;fontSize=16;" vertex="1" parent="1">
          <mxGeometry x="707" y="-12" width="96" height="96" as="geometry" />
        </mxCell>
        <mxCell id="0PCHiIV0-nsaMOj3hNc_-4" style="edgeStyle=none;curved=1;rounded=0;orthogonalLoop=1;jettySize=auto;html=1;exitX=1;exitY=0.5;exitDx=0;exitDy=0;fontSize=12;startSize=8;endSize=8;" edge="1" parent="1" source="0PCHiIV0-nsaMOj3hNc_-1" target="0PCHiIV0-nsaMOj3hNc_-1">
          <mxGeometry relative="1" as="geometry" />
        </mxCell>
        <mxCell id="0PCHiIV0-nsaMOj3hNc_-6" value="&lt;div&gt;shared work&lt;/div&gt;&lt;div&gt;queue&lt;br&gt;&lt;/div&gt;" style="whiteSpace=wrap;html=1;fontSize=16;" vertex="1" parent="1">
          <mxGeometry x="539" y="-42" width="108" height="60" as="geometry" />
        </mxCell>
        <mxCell id="0PCHiIV0-nsaMOj3hNc_-8" value="" style="endArrow=block;html=1;rounded=0;fontSize=12;startSize=6;endSize=6;curved=1;startArrow=block;startFill=1;strokeWidth=2;endFill=1;" edge="1" parent="1" source="0PCHiIV0-nsaMOj3hNc_-2">
          <mxGeometry width="50" height="50" relative="1" as="geometry">
            <mxPoint x="659" y="206" as="sourcePoint" />
            <mxPoint x="539" y="-12" as="targetPoint" />
          </mxGeometry>
        </mxCell>
        <mxCell id="0PCHiIV0-nsaMOj3hNc_-9" value="" style="endArrow=block;html=1;rounded=0;fontSize=12;startSize=6;endSize=6;curved=1;startArrow=block;startFill=1;exitX=1;exitY=0.5;exitDx=0;exitDy=0;strokeWidth=2;endFill=1;" edge="1" parent="1" source="0PCHiIV0-nsaMOj3hNc_-6" target="0PCHiIV0-nsaMOj3hNc_-3">
          <mxGeometry width="50" height="50" relative="1" as="geometry">
            <mxPoint x="660" y="-12" as="sourcePoint" />
            <mxPoint x="658" y="72" as="targetPoint" />
          </mxGeometry>
        </mxCell>
        <mxCell id="0PCHiIV0-nsaMOj3hNc_-10" value="&lt;div style=&quot;font-size: 19px;&quot;&gt;&lt;b&gt;wrench-daemon&lt;/b&gt;&lt;/div&gt;" style="text;whiteSpace=wrap;html=1;fontSize=19;align=center;" vertex="1" parent="1">
          <mxGeometry x="551" y="-96" width="156" height="36" as="geometry" />
        </mxCell>
        <mxCell id="0PCHiIV0-nsaMOj3hNc_-21" value="&lt;div&gt;simulation&lt;br&gt;&lt;/div&gt;&lt;div&gt;state&lt;br&gt;&lt;/div&gt;" style="whiteSpace=wrap;html=1;fontSize=16;" vertex="1" parent="1">
          <mxGeometry x="539" y="84" width="108" height="60" as="geometry" />
        </mxCell>
        <mxCell id="0PCHiIV0-nsaMOj3hNc_-22" value="" style="endArrow=none;html=1;rounded=0;fontSize=12;startSize=6;endSize=6;curved=1;startArrow=block;startFill=1;endFill=0;strokeWidth=2;entryX=0;entryY=0.25;entryDx=0;entryDy=0;" edge="1" parent="1" source="0PCHiIV0-nsaMOj3hNc_-2" target="0PCHiIV0-nsaMOj3hNc_-21">
          <mxGeometry width="50" height="50" relative="1" as="geometry">
            <mxPoint x="504" as="sourcePoint" />
            <mxPoint x="551" as="targetPoint" />
          </mxGeometry>
        </mxCell>
        <mxCell id="0PCHiIV0-nsaMOj3hNc_-23" value="" style="endArrow=block;html=1;rounded=0;fontSize=12;startSize=6;endSize=6;curved=1;entryX=0;entryY=1;entryDx=0;entryDy=0;startArrow=block;startFill=1;exitX=1;exitY=0.25;exitDx=0;exitDy=0;strokeWidth=2;endFill=1;" edge="1" parent="1" source="0PCHiIV0-nsaMOj3hNc_-21" target="0PCHiIV0-nsaMOj3hNc_-3">
          <mxGeometry width="50" height="50" relative="1" as="geometry">
            <mxPoint x="659" as="sourcePoint" />
            <mxPoint x="719" as="targetPoint" />
          </mxGeometry>
        </mxCell>
        <mxCell id="0PCHiIV0-nsaMOj3hNc_-13" value="" style="rounded=1;whiteSpace=wrap;html=1;fontSize=16;" vertex="1" parent="1">
          <mxGeometry x="-96" y="-96" width="336" height="264" as="geometry" />
        </mxCell>
        <mxCell id="0PCHiIV0-nsaMOj3hNc_-16" style="edgeStyle=none;curved=1;rounded=0;orthogonalLoop=1;jettySize=auto;html=1;exitX=1;exitY=0.5;exitDx=0;exitDy=0;fontSize=12;startSize=8;endSize=8;" edge="1" parent="1" source="0PCHiIV0-nsaMOj3hNc_-13" target="0PCHiIV0-nsaMOj3hNc_-13">
          <mxGeometry relative="1" as="geometry" />
        </mxCell>
        <mxCell id="0PCHiIV0-nsaMOj3hNc_-20" value="&lt;div style=&quot;font-size: 19px;&quot;&gt;&lt;b&gt;Python simulator&lt;/b&gt;&lt;br&gt;&lt;/div&gt;" style="text;whiteSpace=wrap;html=1;fontSize=19;align=center;" vertex="1" parent="1">
          <mxGeometry x="-18" y="-96" width="169" height="36" as="geometry" />
        </mxCell>
        <mxCell id="0PCHiIV0-nsaMOj3hNc_-24" value="&lt;div&gt;Simulation&lt;/div&gt;&lt;div&gt;class&lt;br&gt;&lt;/div&gt;" style="shape=parallelogram;perimeter=parallelogramPerimeter;whiteSpace=wrap;html=1;fixedSize=1;fontSize=16;size=12;" vertex="1" parent="1">
          <mxGeometry x="96" y="12" width="120" height="60" as="geometry" />
        </mxCell>
        <mxCell id="0PCHiIV0-nsaMOj3hNc_-25" value="&lt;div&gt;some&lt;/div&gt;&lt;div&gt;simulation object&lt;/div&gt;" style="shape=parallelogram;perimeter=parallelogramPerimeter;whiteSpace=wrap;html=1;fixedSize=1;fontSize=16;size=12;" vertex="1" parent="1">
          <mxGeometry x="-84" y="72" width="120" height="72" as="geometry" />
        </mxCell>
        <mxCell id="0PCHiIV0-nsaMOj3hNc_-26" value="main method" style="shape=parallelogram;perimeter=parallelogramPerimeter;whiteSpace=wrap;html=1;fixedSize=1;fontSize=16;size=12;" vertex="1" parent="1">
          <mxGeometry x="-84" y="-48" width="120" height="60" as="geometry" />
        </mxCell>
        <mxCell id="0PCHiIV0-nsaMOj3hNc_-28" value="" style="endArrow=classic;html=1;rounded=0;fontSize=12;startSize=8;endSize=8;curved=1;exitX=0.5;exitY=1;exitDx=0;exitDy=0;" edge="1" parent="1" source="0PCHiIV0-nsaMOj3hNc_-26" target="0PCHiIV0-nsaMOj3hNc_-25">
          <mxGeometry width="50" height="50" relative="1" as="geometry">
            <mxPoint x="288" y="230" as="sourcePoint" />
            <mxPoint x="338" y="180" as="targetPoint" />
            <Array as="points">
              <mxPoint x="-36" y="48" />
            </Array>
          </mxGeometry>
        </mxCell>
        <mxCell id="0PCHiIV0-nsaMOj3hNc_-29" value="" style="endArrow=classic;html=1;rounded=0;fontSize=12;startSize=8;endSize=8;curved=1;exitX=1;exitY=0.5;exitDx=0;exitDy=0;entryX=0.25;entryY=0;entryDx=0;entryDy=0;strokeColor=default;" edge="1" parent="1" source="0PCHiIV0-nsaMOj3hNc_-26" target="0PCHiIV0-nsaMOj3hNc_-24">
          <mxGeometry width="50" height="50" relative="1" as="geometry">
            <mxPoint x="-12" y="24" as="sourcePoint" />
            <mxPoint x="-19" y="84" as="targetPoint" />
            <Array as="points">
              <mxPoint x="108" y="-24" />
            </Array>
          </mxGeometry>
        </mxCell>
        <mxCell id="0PCHiIV0-nsaMOj3hNc_-35" value="" style="endArrow=classic;html=1;rounded=0;fontSize=12;startSize=8;endSize=8;curved=1;exitX=1;exitY=0.5;exitDx=0;exitDy=0;entryX=0.25;entryY=1;entryDx=0;entryDy=0;" edge="1" parent="1" source="0PCHiIV0-nsaMOj3hNc_-25" target="0PCHiIV0-nsaMOj3hNc_-24">
          <mxGeometry width="50" height="50" relative="1" as="geometry">
            <mxPoint x="96" y="84" as="sourcePoint" />
            <mxPoint x="89" y="144" as="targetPoint" />
            <Array as="points">
              <mxPoint x="96" y="132" />
            </Array>
          </mxGeometry>
        </mxCell>
        <mxCell id="0PCHiIV0-nsaMOj3hNc_-36" value="&lt;div style=&quot;font-size: 12px;&quot;&gt;invoke&lt;/div&gt;&lt;div style=&quot;font-size: 12px;&quot;&gt;method&lt;br style=&quot;font-size: 12px;&quot;&gt;&lt;/div&gt;" style="text;whiteSpace=wrap;html=1;fontSize=12;align=center;" vertex="1" parent="1">
          <mxGeometry x="-96" y="18" width="72" height="36" as="geometry" />
        </mxCell>
        <mxCell id="0PCHiIV0-nsaMOj3hNc_-37" value="&lt;div style=&quot;font-size: 12px;&quot;&gt;invoke&lt;/div&gt;&lt;div style=&quot;font-size: 12px;&quot;&gt;method&lt;br style=&quot;font-size: 12px;&quot;&gt;&lt;/div&gt;" style="text;whiteSpace=wrap;html=1;fontSize=12;align=center;" vertex="1" parent="1">
          <mxGeometry x="72" y="-54" width="72" height="36" as="geometry" />
        </mxCell>
        <mxCell id="0PCHiIV0-nsaMOj3hNc_-38" value="&lt;div style=&quot;font-size: 12px;&quot;&gt;invoke&lt;/div&gt;&lt;div style=&quot;font-size: 12px;&quot;&gt;method&lt;br style=&quot;font-size: 12px;&quot;&gt;&lt;/div&gt;" style="text;whiteSpace=wrap;html=1;fontSize=12;align=center;" vertex="1" parent="1">
          <mxGeometry x="59" y="120" width="72" height="36" as="geometry" />
        </mxCell>
        <mxCell id="0PCHiIV0-nsaMOj3hNc_-63" value="&lt;div&gt;can only&lt;/div&gt;&lt;div&gt;read&lt;br&gt;&lt;/div&gt;" style="text;whiteSpace=wrap;html=1;fontSize=12;align=center;" vertex="1" parent="1">
          <mxGeometry x="456" y="84" width="72" height="36" as="geometry" />
        </mxCell>
        <mxCell id="0PCHiIV0-nsaMOj3hNc_-64" value="&lt;div&gt;can read&lt;/div&gt;&lt;div&gt;and modify&lt;br&gt;&lt;/div&gt;" style="text;whiteSpace=wrap;html=1;fontSize=12;align=center;" vertex="1" parent="1">
          <mxGeometry x="660" y="84" width="72" height="36" as="geometry" />
        </mxCell>
      </root>
    </mxGraphModel>
  </diagram>
</mxfile>
